<?xml version="1.0" standalone="no"?>
<!DOCTYPE svg PUBLIC "-//W3C//DTD SVG 20010904//EN"
 "http://www.w3.org/TR/2001/REC-SVG-20010904/DTD/svg10.dtd">
<svg version="1.0" xmlns="http://www.w3.org/2000/svg"
 width="256.000000pt" height="256.000000pt" viewBox="0 0 256.000000 256.000000"
 preserveAspectRatio="xMidYMid meet">
<metadata>
Created by potrace 1.11, written by Peter Selinger 2001-2013
</metadata>
<g transform="translate(0.000000,256.000000) scale(0.100000,-0.100000)"
fill="#000000" stroke="none">
<path d="M0 1280 l0 -1280 1280 0 1280 0 0 1280 0 1280 -1280 0 -1280 0 0
-1280z m1710 555 l5 -510 47 -6 c60 -9 140 -53 180 -98 56 -64 81 -134 86
-244 4 -90 7 -100 28 -114 22 -14 26 -14 49 1 l25 16 0 498 0 497 -117 117
-118 118 78 78 77 77 151 -151 150 -151 -3 -559 c-3 -625 0 -599 -76 -677 -60
-62 -105 -82 -192 -82 -87 0 -132 20 -192 82 -54 55 -70 102 -77 226 -6 103
-8 110 -34 133 -16 13 -37 24 -48 24 -18 0 -19 -10 -19 -340 l0 -340 318 -2
317 -3 0 -105 0 -105 -1065 0 -1065 0 -3 1055 c-1 580 0 1061 3 1068 3 10 158
12 747 10 l743 -3 5 -510z"/>
<path d="M537 2023 c-4 -3 -7 -147 -7 -320 l0 -313 430 0 430 0 -2 318 -3 317
-421 3 c-231 1 -424 -1 -427 -5z m633 -318 l0 -105 -210 0 -210 0 0 105 0 105
210 0 210 0 0 -105z"/>
</g>
</svg>
